{"title":"Captain America Winter Soldier 2014 REAL DVDRip x264 AC3-TiTAN","uid":10663317,"size":2148800109,"categoryP":"video","categoryS":"movies","magnet":"?xt=urn:btih:c14be7b2b4524e94d1f7c87f14a8e88f10590189&amp;dn=Captain+America+Winter+Soldier+2014+REAL+DVDRip+x264+AC3-TiTAN&amp;tr=udp%3A%2F%2Ftracker.openbittorrent.com%3A80&amp;tr=udp%3A%2F%2Fopen.demonii.com%3A1337&amp;tr=udp%3A%2F%2Ftracker.coppersurfer.tk%3A6969&amp;tr=udp%3A%2F%2Fexodus.desync.com%3A6969","seeders":5,"leechers":0,"uploader":"HeroMaster","files":-1,"time":1406758024,"description":"::::::::::: TiTAN PRESENTS ::::::::::::\n\n\n:::: Captain America Winter Soldier 2014 REAL DVDRip x264 AC3 ::::\n\n\n::Information::\n\n\nSource: R3 DVDR\n &lt;a href=&quot;\nhttp://www.imdb.com/title/tt1843866/&quot; rel=&quot;nofollow&quot; target=&quot;_NEW&quot;&gt;\nhttp://www.imdb.com/title/tt1843866/&lt;/a&gt;\n\nLanguage: English\n\n\n::More Information::\n\n\nFormat                                   : Matroska\nFormat version                           : Version 2\nFile size                                : 2.00 GiB\nDuration                                 : 2h 15mn\nOverall bit rate                         : 2 103 Kbps\nEncoded date                             : UTC 2014-07-30 13:58:32\n\n\nVideo\nID                                       : 1\nFormat                                   : AVC\nFormat/Info                              : Advanced Video Codec\nFormat profile                           : &lt;a class=&quot;__cf_email__&quot; href=&quot;/cdn-cgi/l/email-protection&quot; data-cfemail=&quot;89c1e0eee1c9c5bda7b8&quot;&gt;[email&amp;#160;protected]&lt;/a&gt;&lt;script cf-hash='f9e31' type=&quot;text/javascript&quot;&gt;\n/* &lt;![CDATA[ */!function(){try{var t=&quot;currentScript&quot;in document?document.currentScript:function(){for(var t=document.getElementsByTagName(&quot;script&quot;),e=t.length;e--;)if(t[e].getAttribute(&quot;cf-hash&quot;))return t[e]}();if(t&amp;&amp;t.previousSibling){var e,r,n,i,c=t.previousSibling,a=c.getAttribute(&quot;data-cfemail&quot;);if(a){for(e=&quot;&quot;,r=parseInt(a.substr(0,2),16),n=2;a.length-n;n+=2)i=parseInt(a.substr(n,2),16)^r,e+=String.fromCharCode(i);e=document.createTextNode(e),c.parentNode.replaceChild(e,c)}}}catch(u){}}();/* ]]&gt; */&lt;/script&gt;\nFormat settings, CABAC                   : Yes\nFormat settings, ReFrames                : 5 frames\nCodec ID                                 : V_MPEG4/ISO/AVC\nDuration                                 : 2h 15mn\nBit rate                                 : 1 717 Kbps\nWidth                                    : 720 pixels\nHeight                                   : 304 pixels\nDisplay aspect ratio                     : 2.35:1\nFrame rate mode                          : Constant\nFrame rate                               : 29.970 fps\nColor space                              : YUV\nChroma subsampling                       : 4:2:0\nBit depth                                : 8 bits\nScan type                                : Progressive\nBits/(Pixel*Frame)                       : 0.262\nStream size                              : 1.59 GiB (80%)\nDefault                                  : Yes\nForced                                   : No\n\n\nAudio\nID                                       : 2\nFormat                                   : AC-3\nFormat/Info                              : Audio Coding 3\nMode extension                           : CM (complete main)\nFormat settings, Endianness              : Big\nCodec ID                                 : A_AC3\nDuration                                 : 2h 15mn\nBit rate mode                            : Constant\nBit rate                                 : 384 Kbps\nChannel(s)                               : 6 channels\nChannel positions                        : Front: L C R, Side: L R, LFE\nSampling rate                            : 48.0 KHz\nBit depth                                : 16 bits\nCompression mode                         : Lossy\nStream size                              : 373 MiB (18%)\nDefault                                  : Yes\nForced                                   : No\n\n\n::Greetz and Respect::\n\n\nALL CREDIT Goes to TiTAN for Encoding and ABG for Distribution.\n\n\n::Notes::\n\n\nThis is the Real DVDRip from the Original R3 DVDR, Be Aware there are TS copies\n\naround which is hitting by the name of DVDRip, enjoy and have fun watching.\n\n\n::Poster::\n\n &lt;a href=&quot;\nhttp://i.imgur.com/bX2A3v0.gif&quot; rel=&quot;nofollow&quot; target=&quot;_NEW&quot;&gt;\nhttp://i.imgur.com/bX2A3v0.gif&lt;/a&gt;\n\n\n::Screenshots::\n\n &lt;a href=&quot;\nhttp://i.imgur.com/n5QvolT.jpg&quot; rel=&quot;nofollow&quot; target=&quot;_NEW&quot;&gt;\nhttp://i.imgur.com/n5QvolT.jpg&lt;/a&gt;\n\n\nSEED AND ENJOY!","torrent":{"xt":"urn:btih:c14be7b2b4524e94d1f7c87f14a8e88f10590189","amp;dn":"Captain+America+Winter+Soldier+2014+REAL+DVDRip+x264+AC3-TiTAN","amp;tr":["udp%3A%2F%2Ftracker.openbittorrent.com%3A80","udp%3A%2F%2Fopen.demonii.com%3A1337","udp%3A%2F%2Ftracker.coppersurfer.tk%3A6969","udp%3A%2F%2Fexodus.desync.com%3A6969"],"infoHash":"c14be7b2b4524e94d1f7c87f14a8e88f10590189","infoHashBuffer":{"type":"Buffer","data":[193,75,231,178,180,82,78,148,209,247,200,127,20,168,232,143,16,89,1,137]},"announce":[],"urlList":[]}}